{
  "nbformat": 4,
  "nbformat_minor": 0,
  "metadata": {
    "colab": {
      "provenance": [],
      "collapsed_sections": []
    },
    "kernelspec": {
      "name": "python3",
      "display_name": "Python 3"
    },
    "language_info": {
      "name": "python"
    }
  },
  "cells": [
    {
      "cell_type": "markdown",
      "source": [
        "# Download Youtube Videos"
      ],
      "metadata": {
        "id": "6jOH4845freI"
      }
    },
    {
      "cell_type": "code",
      "execution_count": 1,
      "metadata": {
        "colab": {
          "base_uri": "https://localhost:8080/"
        },
        "id": "7FtQRqg_eH_8",
        "outputId": "3b9ea082-bcbc-49c9-bc50-491495c508ed"
      },
      "outputs": [
        {
          "output_type": "stream",
          "name": "stdout",
          "text": [
            "Cloning into 'youtube_downloader'...\n",
            "remote: Enumerating objects: 161, done.\u001b[K\n",
            "remote: Counting objects: 100% (49/49), done.\u001b[K\n",
            "remote: Compressing objects: 100% (46/46), done.\u001b[K\n",
            "remote: Total 161 (delta 20), reused 0 (delta 0), pack-reused 112\u001b[K\n",
            "Receiving objects: 100% (161/161), 113.09 KiB | 965.00 KiB/s, done.\n",
            "Resolving deltas: 100% (60/60), done.\n"
          ]
        }
      ],
      "source": [
        "!git clone https://github.com/wayne931121/youtube_downloader.git"
      ]
    },
    {
      "cell_type": "code",
      "source": [
        "#Attention FFmpeg In Colab is not fast, if you want to download 1080p, then use your computer to transform.\n",
        "#Get Currect FFmpeg Version(Colab Apt Only Allow To Install 3.4.11-0ubuntu0.1 at 2022.11.14. And 3.14.11 Version Not Including h264 video format)\n",
        "!wget https://johnvansickle.com/ffmpeg/builds/ffmpeg-git-20220910-amd64-static.tar.xz\n",
        "!tar xf ffmpeg-git-20220910-amd64-static.tar.xz\n",
        "!sudo apt remove ffmpeg\n",
        "import os\n",
        "os.environ['PATH'] += ':/content/ffmpeg-git-20220910-amd64-static'\n",
        "print(\"\")\n",
        "!ffmpeg -version\n",
        "# #Configure FFmpeg From Source Code\n",
        "# %%bash\n",
        "# sudo apt update && sudo apt upgrade\n",
        "# sudo apt install yasm\n",
        "# git clone https://git.ffmpeg.org/ffmpeg.git\n",
        "# ./configure\n",
        "# make\n",
        "# make install"
      ],
      "metadata": {
        "colab": {
          "base_uri": "https://localhost:8080/"
        },
        "id": "YOuSuCiFwv7p",
        "outputId": "d950a28a-0b61-42fb-8960-c0f02249a894"
      },
      "execution_count": 2,
      "outputs": [
        {
          "output_type": "stream",
          "name": "stdout",
          "text": [
            "--2022-11-14 11:49:13--  https://johnvansickle.com/ffmpeg/builds/ffmpeg-git-20220910-amd64-static.tar.xz\n",
            "Resolving johnvansickle.com (johnvansickle.com)... 107.180.57.212\n",
            "Connecting to johnvansickle.com (johnvansickle.com)|107.180.57.212|:443... connected.\n",
            "HTTP request sent, awaiting response... 200 OK\n",
            "Length: 40997632 (39M) [application/x-xz]\n",
            "Saving to: ‘ffmpeg-git-20220910-amd64-static.tar.xz’\n",
            "\n",
            "ffmpeg-git-20220910 100%[===================>]  39.10M  9.25MB/s    in 5.2s    \n",
            "\n",
            "2022-11-14 11:49:18 (7.50 MB/s) - ‘ffmpeg-git-20220910-amd64-static.tar.xz’ saved [40997632/40997632]\n",
            "\n",
            "Reading package lists... Done\n",
            "Building dependency tree       \n",
            "Reading state information... Done\n",
            "The following package was automatically installed and is no longer required:\n",
            "  libnvidia-common-460\n",
            "Use 'sudo apt autoremove' to remove it.\n",
            "The following packages will be REMOVED:\n",
            "  ffmpeg\n",
            "0 upgraded, 0 newly installed, 1 to remove and 5 not upgraded.\n",
            "After this operation, 2,276 kB disk space will be freed.\n",
            "(Reading database ... 123942 files and directories currently installed.)\n",
            "Removing ffmpeg (7:3.4.11-0ubuntu0.1) ...\n",
            "Processing triggers for man-db (2.8.3-2ubuntu0.1) ...\n",
            "\n",
            "ffmpeg version N-63101-gc92edd969a-static https://johnvansickle.com/ffmpeg/  Copyright (c) 2000-2022 the FFmpeg developers\n",
            "built with gcc 8 (Debian 8.3.0-6)\n",
            "configuration: --enable-gpl --enable-version3 --enable-static --disable-debug --disable-ffplay --disable-indev=sndio --disable-outdev=sndio --cc=gcc --enable-fontconfig --enable-frei0r --enable-gnutls --enable-gmp --enable-libgme --enable-gray --enable-libaom --enable-libfribidi --enable-libass --enable-libvmaf --enable-libfreetype --enable-libmp3lame --enable-libopencore-amrnb --enable-libopencore-amrwb --enable-libopenjpeg --enable-librubberband --enable-libsoxr --enable-libspeex --enable-libsrt --enable-libvorbis --enable-libopus --enable-libtheora --enable-libvidstab --enable-libvo-amrwbenc --enable-libvpx --enable-libwebp --enable-libx264 --enable-libx265 --enable-libxml2 --enable-libdav1d --enable-libxvid --enable-libzvbi --enable-libzimg\n",
            "libavutil      57. 36.101 / 57. 36.101\n",
            "libavcodec     59. 42.104 / 59. 42.104\n",
            "libavformat    59. 30.101 / 59. 30.101\n",
            "libavdevice    59.  8.101 / 59.  8.101\n",
            "libavfilter     8. 48.100 /  8. 48.100\n",
            "libswscale      6.  8.108 /  6.  8.108\n",
            "libswresample   4.  9.100 /  4.  9.100\n",
            "libpostproc    56.  7.100 / 56.  7.100\n"
          ]
        }
      ]
    },
    {
      "cell_type": "code",
      "source": [
        "%cd youtube_downloader\n",
        "# %pwd"
      ],
      "metadata": {
        "colab": {
          "base_uri": "https://localhost:8080/"
        },
        "id": "lkiqG-d0fGi3",
        "outputId": "931b7eb8-a4a1-4e16-bb90-ca548ebe8a8c"
      },
      "execution_count": 3,
      "outputs": [
        {
          "output_type": "stream",
          "name": "stdout",
          "text": [
            "/content/youtube_downloader\n"
          ]
        }
      ]
    },
    {
      "cell_type": "code",
      "source": [
        "!python youtube.py -u https://www.youtube.com/watch?v=dQw4w9WgXcQ -l"
      ],
      "metadata": {
        "colab": {
          "base_uri": "https://localhost:8080/"
        },
        "id": "gH1ckXmlhBSR",
        "outputId": "c98b0120-fd0c-4cf4-8649-bc8ca046924c"
      },
      "execution_count": 4,
      "outputs": [
        {
          "output_type": "stream",
          "name": "stdout",
          "text": [
            "Get User Argument\n",
            "Download Source Code From Youtube...\n",
            "Type:      video/mp4; codecs=\"avc1.640028\", W×H  1920× 1080     1080P, Fps  25, ContentLength 80501879. \n",
            "Type:             video/webm; codecs=\"vp9\", W×H  1920× 1080     1080P, Fps  25, ContentLength 56193418. \n",
            "Type:    video/mp4; codecs=\"av01.0.08M.08\", W×H  1920× 1080     1080P, Fps  25, ContentLength 47349674. \n",
            "Type:      video/mp4; codecs=\"avc1.4d401f\", W×H  1280×  720      720P, Fps  25, ContentLength 16827304. \n",
            "Type:             video/webm; codecs=\"vp9\", W×H  1280×  720      720P, Fps  25, ContentLength 17312766. \n",
            "Type:    video/mp4; codecs=\"av01.0.05M.08\", W×H  1280×  720      720P, Fps  25, ContentLength 24862684. \n",
            "Type:      video/mp4; codecs=\"avc1.4d401e\", W×H   854×  480      480P, Fps  25, ContentLength 8727923. \n",
            "Type:             video/webm; codecs=\"vp9\", W×H   854×  480      480P, Fps  25, ContentLength 9833996. \n",
            "Type:    video/mp4; codecs=\"av01.0.04M.08\", W×H   854×  480      480P, Fps  25, ContentLength 12005396. \n",
            "Type:      video/mp4; codecs=\"avc1.4d401e\", W×H   640×  360      360P, Fps  25, ContentLength 5706727. \n",
            "Type:             video/webm; codecs=\"vp9\", W×H   640×  360      360P, Fps  25, ContentLength 6862268. \n",
            "Type:    video/mp4; codecs=\"av01.0.01M.08\", W×H   640×  360      360P, Fps  25, ContentLength 6886292. \n",
            "Type:      video/mp4; codecs=\"avc1.4d4015\", W×H   426×  240      240P, Fps  25, ContentLength 3041979. \n",
            "Type:             video/webm; codecs=\"vp9\", W×H   426×  240      240P, Fps  25, ContentLength 3897210. \n",
            "Type:    video/mp4; codecs=\"av01.0.00M.08\", W×H   426×  240      240P, Fps  25, ContentLength 3538884. \n",
            "Type:      video/mp4; codecs=\"avc1.4d400c\", W×H   256×  144      144P, Fps  25, ContentLength 1874931. \n",
            "Type:             video/webm; codecs=\"vp9\", W×H   256×  144      144P, Fps  25, ContentLength 2152415. \n",
            "Type:    video/mp4; codecs=\"av01.0.00M.08\", W×H   256×  144      144P, Fps  25, ContentLength 1789410. \n",
            "Type:        audio/mp4; codecs=\"mp4a.40.2\", Bitrate  130602, Rate  44100, Channels 2, Quality  AUDIO_QUALITY_MEDIUM, ContentLength 3433514. \n",
            "Type:            audio/webm; codecs=\"opus\", Bitrate   49668, Rate  48000, Channels 2, Quality     AUDIO_QUALITY_LOW, ContentLength 1232413. \n",
            "Type:            audio/webm; codecs=\"opus\", Bitrate   65984, Rate  48000, Channels 2, Quality     AUDIO_QUALITY_LOW, ContentLength 1630086. \n",
            "Type:            audio/webm; codecs=\"opus\", Bitrate  136946, Rate  48000, Channels 2, Quality  AUDIO_QUALITY_MEDIUM, ContentLength 3437753. \n"
          ]
        }
      ]
    },
    {
      "cell_type": "code",
      "source": [
        "cmd = r\"\"\"\n",
        "def CMD(cmd):\n",
        "    p = subprocess.Popen(cmd, stdout=subprocess.PIPE, stderr=subprocess.STDOUT, shell=True, encoding='utf-8')\n",
        "    stack = \"\"\n",
        "    while True:\n",
        "        word = p.stdout.readline(1)\n",
        "        stack += word\n",
        "        if \"\\n\" in stack:\n",
        "            if \"speed\" in stack:\n",
        "                print(stack)\n",
        "            stack = \"\"\n",
        "        if not word: break\n",
        "    print(end=\"\\n\")\n",
        "    return 0\n",
        "\"\"\"\n",
        "\n",
        "with open(\"youtube.py\", \"r\", encoding=\"utf-8\") as r: r = cmd + r.read().replace(\"os.system\", \"CMD\")\n",
        "with open(\"youtube.py\", \"w\", encoding=\"utf-8\") as w: w.write(r)"
      ],
      "metadata": {
        "id": "5uWZchra5Vty"
      },
      "execution_count": 5,
      "outputs": []
    },
    {
      "cell_type": "code",
      "source": [
        "!python youtube.py -u https://www.youtube.com/watch?v=dQw4w9WgXcQ -d -q 480"
      ],
      "metadata": {
        "colab": {
          "base_uri": "https://localhost:8080/"
        },
        "id": "AhBkuqoVfklH",
        "outputId": "e566f3a4-3659-463d-c51a-b6799cabd9e2"
      },
      "execution_count": 6,
      "outputs": [
        {
          "output_type": "stream",
          "name": "stdout",
          "text": [
            "Get User Argument\n",
            "Download Source Code From Youtube...\n",
            "Download Source Code From https://www.youtube.com/s/player/c4225c42/player_ias.vflset/en_US/base.js\n",
            "\n",
            "\n",
            "Type: video/mp4; codecs=\"avc1.4d401e\", W×H 854×480 480P, Fps 25, ContentLength 8727923. \n",
            "https://rr4---sn-q4flrnee.googlevideo.com/videoplayback?expire=1668448368&ei=ECxyY5HvD9P-kgbg0aroBA&ip=34.125.188.109&id=o-AE5-AAtYOfxzGBLdKkBbZ7eZ5u8UjuDC2TCbm9rS9K7-&itag=135&aitags=133%2C134%2C135%2C136%2C137%2C160%2C242%2C243%2C244%2C247%2C248%2C278%2C394%2C395%2C396%2C397%2C398%2C399&source=youtube&requiressl=yes&mh=7c&mm=31%2C29&mn=sn-q4flrnee%2Csn-q4fl6n6d&ms=au%2Crdu&mv=m&mvi=4&pl=20&initcwndbps=1161250&vprv=1&mime=video%2Fmp4&ns=_x-q-jDGv-GLc-cDyMC98SoJ&gir=yes&clen=8727923&dur=212.040&lmt=1663941712890156&mt=1668426301&fvip=2&keepalive=yes&fexp=24001373%2C24007246&c=WEB&txp=453D434&n=z5qmCuKpG65V043BSi8&sparams=expire%2Cei%2Cip%2Cid%2Caitags%2Csource%2Crequiressl%2Cvprv%2Cmime%2Cns%2Cgir%2Cclen%2Cdur%2Clmt&lsparams=mh%2Cmm%2Cmn%2Cms%2Cmv%2Cmvi%2Cpl%2Cinitcwndbps&lsig=AG3C_xAwRQIgU_6ZUC9w2r3hmLZmb8WepKwoPmtUQtQI2h0AFi8CFJcCIQCAhm4SeBfbF297ljKrRQTsMGVDG-CkvxKJyCqSOCg87A%3D%3D&alr=yes&sig=AOq0QJ8wRAIgO6CfAE1K_w3B-QuhQ83hJeqiWrkwXukA7JG4rKOu9xkCIGZ9bQnUNKqtdBXdQE6tOE39zsKKFvvUXTwH21sEuZ_f\n",
            "\n",
            "\n",
            "Type: video/webm; codecs=\"vp9\", W×H 854×480 480P, Fps 25, ContentLength 9833996. \n",
            "https://rr4---sn-q4flrnee.googlevideo.com/videoplayback?expire=1668448368&ei=ECxyY5HvD9P-kgbg0aroBA&ip=34.125.188.109&id=o-AE5-AAtYOfxzGBLdKkBbZ7eZ5u8UjuDC2TCbm9rS9K7-&itag=244&aitags=133%2C134%2C135%2C136%2C137%2C160%2C242%2C243%2C244%2C247%2C248%2C278%2C394%2C395%2C396%2C397%2C398%2C399&source=youtube&requiressl=yes&mh=7c&mm=31%2C29&mn=sn-q4flrnee%2Csn-q4fl6n6d&ms=au%2Crdu&mv=m&mvi=4&pl=20&initcwndbps=1161250&vprv=1&mime=video%2Fwebm&ns=_x-q-jDGv-GLc-cDyMC98SoJ&gir=yes&clen=9833996&dur=212.040&lmt=1665677811959774&mt=1668426301&fvip=2&keepalive=yes&fexp=24001373%2C24007246&c=WEB&txp=453D434&n=z5qmCuKpG65V043BSi8&sparams=expire%2Cei%2Cip%2Cid%2Caitags%2Csource%2Crequiressl%2Cvprv%2Cmime%2Cns%2Cgir%2Cclen%2Cdur%2Clmt&lsparams=mh%2Cmm%2Cmn%2Cms%2Cmv%2Cmvi%2Cpl%2Cinitcwndbps&lsig=AG3C_xAwRgIhAIaMKxXUAjFbDlcKjnbCgb4CEBoYdxkJIw0K4XIxqMZ3AiEA9ziFUsxD6UfIE2cypo3JbSqC2rBQryTvMoEYBIADgck%3D&alr=yes&sig=AOq0QJ8wRAIgVJ9rvhKNUZnBM6DggnnxCXaQCYdpzlfwWZ-VxXRhVj0CIHSxf1Wn3Uxs2uzQWrhDz4FIUGOSGtHq_3ks3EbkYwLF\n",
            "\n",
            "\n",
            "Type: video/mp4; codecs=\"av01.0.04M.08\", W×H 854×480 480P, Fps 25, ContentLength 12005396. \n",
            "https://rr4---sn-q4flrnee.googlevideo.com/videoplayback?expire=1668448368&ei=ECxyY5HvD9P-kgbg0aroBA&ip=34.125.188.109&id=o-AE5-AAtYOfxzGBLdKkBbZ7eZ5u8UjuDC2TCbm9rS9K7-&itag=397&aitags=133%2C134%2C135%2C136%2C137%2C160%2C242%2C243%2C244%2C247%2C248%2C278%2C394%2C395%2C396%2C397%2C398%2C399&source=youtube&requiressl=yes&mh=7c&mm=31%2C29&mn=sn-q4flrnee%2Csn-q4fl6n6d&ms=au%2Crdu&mv=m&mvi=4&pl=20&initcwndbps=1161250&vprv=1&mime=video%2Fmp4&ns=_x-q-jDGv-GLc-cDyMC98SoJ&gir=yes&clen=12005396&dur=212.040&lmt=1651672236013586&mt=1668426301&fvip=2&keepalive=yes&fexp=24001373%2C24007246&c=WEB&txp=4532434&n=z5qmCuKpG65V043BSi8&sparams=expire%2Cei%2Cip%2Cid%2Caitags%2Csource%2Crequiressl%2Cvprv%2Cmime%2Cns%2Cgir%2Cclen%2Cdur%2Clmt&lsparams=mh%2Cmm%2Cmn%2Cms%2Cmv%2Cmvi%2Cpl%2Cinitcwndbps&lsig=AG3C_xAwRQIhAKf0JyoCcKcid6cNx06u_DcImmtQx6avppl6KjlGdF9BAiBK4wh0G-dEmCO6vFMUmJeEmUyZd1qn9C_8mro-gUgD8A%3D%3D&alr=yes&sig=AOq0QJ8wRQIgIsSkASE6Z5wtIsptSa54ffY-9dd4Bx9-kPbEGm_wKTICIQCt8MMWWA_d4m19kPy-8T2ETDfA5AxqnYkfsC97rjC3PQ%3D%3D\n",
            "\n",
            "\n",
            "Downloading Video And Audio...\n",
            "Range: 11993088-12005395 100%\n",
            "Range: 3407872-3437752 100%\n",
            "\n",
            "Transform Type:\n",
            "ffmpeg -i \"Rick Astley - Never Gonna Give You Up (Official Music Video)_video.mp4\" -i \"Rick Astley - Never Gonna Give You Up (Official Music Video)_audio.webm\" -c:v libx264 -c:a aac -y \"Rick Astley - Never Gonna Give You Up (Official Music Video).mp4\"\n",
            "\n",
            "frame=    0 fps=0.0 q=0.0 size=       0kB time=-577014:32:22.77 bitrate=  -0.0kbits/s speed=N/A    \n",
            "\n",
            "frame=    4 fps=0.0 q=28.0 size=       0kB time=00:00:01.99 bitrate=   0.2kbits/s speed=3.89x    \n",
            "\n",
            "frame=   29 fps= 28 q=28.0 size=       0kB time=00:00:02.95 bitrate=   0.1kbits/s speed=2.87x    \n",
            "\n",
            "frame=   50 fps= 32 q=28.0 size=       0kB time=00:00:03.82 bitrate=   0.1kbits/s speed=2.49x    \n",
            "\n",
            "frame=   73 fps= 35 q=28.0 size=     256kB time=00:00:04.70 bitrate= 446.2kbits/s speed=2.28x    \n",
            "\n",
            "frame=   95 fps= 37 q=28.0 size=     256kB time=00:00:05.59 bitrate= 374.8kbits/s speed=2.18x    \n",
            "\n",
            "frame=  115 fps= 37 q=28.0 size=     256kB time=00:00:06.42 bitrate= 326.3kbits/s speed= 2.1x    \n",
            "\n",
            "frame=  138 fps= 39 q=28.0 size=     512kB time=00:00:07.34 bitrate= 571.0kbits/s speed=2.05x    \n",
            "\n",
            "frame=  162 fps= 40 q=28.0 size=     512kB time=00:00:08.30 bitrate= 505.0kbits/s speed=2.04x    \n",
            "\n",
            "frame=  188 fps= 41 q=28.0 size=     512kB time=00:00:09.30 bitrate= 450.6kbits/s speed=2.03x    \n",
            "\n",
            "frame=  209 fps= 41 q=28.0 size=     768kB time=00:00:10.14 bitrate= 620.4kbits/s speed=1.98x    \n",
            "\n",
            "frame=  228 fps= 40 q=28.0 size=     768kB time=00:00:10.95 bitrate= 574.5kbits/s speed=1.93x    \n",
            "\n",
            "frame=  249 fps= 40 q=28.0 size=    1024kB time=00:00:11.74 bitrate= 714.5kbits/s speed= 1.9x    \n",
            "\n",
            "frame=  272 fps= 41 q=28.0 size=    1024kB time=00:00:12.67 bitrate= 661.6kbits/s speed=1.89x    \n",
            "\n",
            "frame=  291 fps= 40 q=28.0 size=    1024kB time=00:00:13.46 bitrate= 622.8kbits/s speed=1.86x    \n",
            "\n",
            "frame=  310 fps= 40 q=28.0 size=    1280kB time=00:00:14.19 bitrate= 738.8kbits/s speed=1.84x    \n",
            "\n",
            "frame=  327 fps= 40 q=28.0 size=    1280kB time=00:00:14.87 bitrate= 704.9kbits/s speed=1.81x    \n",
            "\n",
            "frame=  345 fps= 39 q=28.0 size=    1536kB time=00:00:15.60 bitrate= 806.5kbits/s speed=1.79x    \n",
            "\n",
            "frame=  362 fps= 39 q=28.0 size=    1536kB time=00:00:16.26 bitrate= 773.7kbits/s speed=1.76x    \n",
            "\n",
            "frame=  378 fps= 39 q=28.0 size=    1792kB time=00:00:16.90 bitrate= 868.5kbits/s speed=1.73x    \n",
            "\n",
            "frame=  395 fps= 38 q=28.0 size=    1792kB time=00:00:17.58 bitrate= 834.8kbits/s speed=1.71x    \n",
            "\n",
            "frame=  412 fps= 38 q=28.0 size=    1792kB time=00:00:18.26 bitrate= 803.6kbits/s speed=1.69x    \n",
            "\n",
            "frame=  430 fps= 38 q=28.0 size=    2048kB time=00:00:18.99 bitrate= 883.3kbits/s speed=1.67x    \n",
            "\n",
            "frame=  447 fps= 38 q=28.0 size=    2048kB time=00:00:19.67 bitrate= 852.7kbits/s speed=1.66x    \n",
            "\n",
            "frame=  466 fps= 38 q=28.0 size=    2304kB time=00:00:20.42 bitrate= 924.2kbits/s speed=1.65x    \n",
            "\n",
            "frame=  482 fps= 37 q=28.0 size=    2304kB time=00:00:21.12 bitrate= 893.4kbits/s speed=1.64x    \n",
            "\n",
            "frame=  502 fps= 37 q=28.0 size=    2560kB time=00:00:21.87 bitrate= 958.8kbits/s speed=1.62x    \n",
            "\n",
            "frame=  518 fps= 37 q=28.0 size=    2560kB time=00:00:22.55 bitrate= 929.7kbits/s speed=1.61x    \n",
            "\n",
            "frame=  536 fps= 37 q=28.0 size=    2816kB time=00:00:23.26 bitrate= 991.8kbits/s speed=1.61x    \n",
            "\n",
            "frame=  553 fps= 37 q=28.0 size=    2816kB time=00:00:23.90 bitrate= 965.2kbits/s speed=1.59x    \n",
            "\n",
            "frame=  570 fps= 37 q=28.0 size=    2816kB time=00:00:24.62 bitrate= 936.8kbits/s speed=1.59x    \n",
            "\n",
            "frame=  588 fps= 37 q=28.0 size=    3072kB time=00:00:25.35 bitrate= 992.7kbits/s speed=1.58x    \n",
            "\n",
            "frame=  603 fps= 36 q=28.0 size=    3072kB time=00:00:25.94 bitrate= 969.8kbits/s speed=1.57x    \n",
            "\n",
            "frame=  622 fps= 36 q=28.0 size=    3328kB time=00:00:26.71 bitrate=1020.5kbits/s speed=1.56x    \n",
            "\n",
            "frame=  639 fps= 36 q=28.0 size=    3328kB time=00:00:27.39 bitrate= 995.0kbits/s speed=1.56x    \n",
            "\n",
            "frame=  655 fps= 36 q=28.0 size=    3328kB time=00:00:28.03 bitrate= 972.3kbits/s speed=1.55x    \n",
            "\n",
            "frame=  673 fps= 36 q=28.0 size=    3584kB time=00:00:28.74 bitrate=1021.5kbits/s speed=1.54x    \n",
            "\n",
            "frame=  691 fps= 36 q=28.0 size=    3584kB time=00:00:29.46 bitrate= 996.3kbits/s speed=1.53x    \n",
            "\n",
            "frame=  709 fps= 36 q=28.0 size=    3840kB time=00:00:30.17 bitrate=1042.6kbits/s speed=1.53x    \n",
            "\n",
            "frame=  724 fps= 36 q=28.0 size=    3840kB time=00:00:30.79 bitrate=1021.6kbits/s speed=1.52x    \n",
            "\n",
            "frame=  741 fps= 36 q=28.0 size=    4096kB time=00:00:31.47 bitrate=1066.1kbits/s speed=1.52x    \n",
            "\n",
            "frame=  757 fps= 36 q=28.0 size=    4096kB time=00:00:32.11 bitrate=1044.9kbits/s speed=1.51x    \n",
            "\n",
            "frame=  778 fps= 36 q=28.0 size=    4352kB time=00:00:32.94 bitrate=1082.1kbits/s speed=1.51x    \n",
            "\n",
            "frame=  794 fps= 36 q=28.0 size=    4352kB time=00:00:33.58 bitrate=1061.5kbits/s speed=1.51x    \n",
            "\n",
            "frame=  814 fps= 36 q=28.0 size=    4352kB time=00:00:34.39 bitrate=1036.5kbits/s speed=1.51x    \n",
            "\n",
            "frame=  830 fps= 36 q=28.0 size=    4608kB time=00:00:34.99 bitrate=1078.7kbits/s speed= 1.5x    \n",
            "\n",
            "frame=  850 fps= 36 q=28.0 size=    4608kB time=00:00:35.82 bitrate=1053.7kbits/s speed= 1.5x    \n",
            "\n",
            "frame=  871 fps= 36 q=28.0 size=    4864kB time=00:00:36.63 bitrate=1087.6kbits/s speed= 1.5x    \n",
            "\n",
            "frame=  890 fps= 36 q=28.0 size=    4864kB time=00:00:37.42 bitrate=1064.7kbits/s speed= 1.5x    \n",
            "\n",
            "frame=  911 fps= 36 q=28.0 size=    4864kB time=00:00:38.27 bitrate=1040.9kbits/s speed=1.51x    \n",
            "\n",
            "frame=  927 fps= 36 q=28.0 size=    5120kB time=00:00:38.91 bitrate=1077.7kbits/s speed= 1.5x    \n",
            "\n",
            "frame=  945 fps= 36 q=28.0 size=    5120kB time=00:00:39.58 bitrate=1059.7kbits/s speed= 1.5x    \n",
            "\n",
            "frame=  962 fps= 36 q=28.0 size=    5376kB time=00:00:40.26 bitrate=1093.8kbits/s speed=1.49x    \n",
            "\n",
            "frame=  984 fps= 36 q=28.0 size=    5376kB time=00:00:41.18 bitrate=1069.4kbits/s speed= 1.5x    \n",
            "\n",
            "frame= 1002 fps= 36 q=28.0 size=    5632kB time=00:00:41.90 bitrate=1101.0kbits/s speed= 1.5x    \n",
            "\n",
            "frame= 1017 fps= 36 q=28.0 size=    5632kB time=00:00:42.50 bitrate=1085.5kbits/s speed=1.49x    \n",
            "\n",
            "frame= 1037 fps= 36 q=28.0 size=    5632kB time=00:00:43.27 bitrate=1066.2kbits/s speed=1.49x    \n",
            "\n",
            "frame= 1052 fps= 36 q=28.0 size=    5888kB time=00:00:43.91 bitrate=1098.5kbits/s speed=1.49x    \n",
            "\n",
            "frame= 1081 fps= 36 q=28.0 size=    5888kB time=00:00:45.06 bitrate=1070.4kbits/s speed= 1.5x    \n",
            "\n",
            "frame= 1107 fps= 36 q=25.0 size=    6144kB time=00:00:46.06 bitrate=1092.6kbits/s speed=1.51x    \n",
            "\n",
            "frame= 1131 fps= 36 q=28.0 size=    6144kB time=00:00:47.02 bitrate=1070.3kbits/s speed=1.51x    \n",
            "\n",
            "frame= 1153 fps= 37 q=28.0 size=    6144kB time=00:00:47.94 bitrate=1049.8kbits/s speed=1.52x    \n",
            "\n",
            "frame= 1175 fps= 37 q=28.0 size=    6144kB time=00:00:48.83 bitrate=1030.6kbits/s speed=1.52x    \n",
            "\n",
            "frame= 1196 fps= 37 q=28.0 size=    6400kB time=00:00:49.62 bitrate=1056.4kbits/s speed=1.52x    \n",
            "\n",
            "frame= 1218 fps= 37 q=28.0 size=    6400kB time=00:00:50.52 bitrate=1037.7kbits/s speed=1.53x    \n",
            "\n",
            "frame= 1238 fps= 37 q=28.0 size=    6656kB time=00:00:51.33 bitrate=1062.2kbits/s speed=1.53x    \n",
            "\n",
            "frame= 1257 fps= 37 q=28.0 size=    6656kB time=00:00:52.10 bitrate=1046.5kbits/s speed=1.53x    \n",
            "\n",
            "frame= 1278 fps= 37 q=28.0 size=    6656kB time=00:00:52.95 bitrate=1029.6kbits/s speed=1.53x    \n",
            "\n",
            "frame= 1299 fps= 37 q=28.0 size=    6912kB time=00:00:53.78 bitrate=1052.7kbits/s speed=1.53x    \n",
            "\n",
            "frame= 1321 fps= 37 q=28.0 size=    6912kB time=00:00:54.62 bitrate=1036.7kbits/s speed=1.53x    \n",
            "\n",
            "frame= 1342 fps= 37 q=28.0 size=    7168kB time=00:00:55.47 bitrate=1058.5kbits/s speed=1.53x    \n",
            "\n",
            "frame= 1362 fps= 37 q=28.0 size=    7168kB time=00:00:56.30 bitrate=1042.9kbits/s speed=1.54x    \n",
            "\n",
            "frame= 1383 fps= 37 q=28.0 size=    7168kB time=00:00:57.15 bitrate=1027.3kbits/s speed=1.54x    \n",
            "\n",
            "frame= 1405 fps= 37 q=28.0 size=    7424kB time=00:00:58.03 bitrate=1048.0kbits/s speed=1.54x    \n",
            "\n",
            "frame= 1432 fps= 38 q=28.0 size=    7424kB time=00:00:59.07 bitrate=1029.4kbits/s speed=1.55x    \n",
            "\n",
            "frame= 1457 fps= 38 q=28.0 size=    7424kB time=00:01:00.06 bitrate=1012.6kbits/s speed=1.55x    \n",
            "\n",
            "frame= 1482 fps= 38 q=28.0 size=    7680kB time=00:01:01.06 bitrate=1030.3kbits/s speed=1.56x    \n",
            "\n",
            "frame= 1505 fps= 38 q=28.0 size=    7680kB time=00:01:01.98 bitrate=1015.1kbits/s speed=1.56x    \n",
            "\n",
            "frame= 1525 fps= 38 q=28.0 size=    7680kB time=00:01:02.79 bitrate=1002.0kbits/s speed=1.56x    \n",
            "\n",
            "frame= 1546 fps= 38 q=28.0 size=    7936kB time=00:01:03.64 bitrate=1021.5kbits/s speed=1.56x    \n",
            "\n",
            "frame= 1566 fps= 38 q=28.0 size=    7936kB time=00:01:04.43 bitrate=1009.0kbits/s speed=1.56x    \n",
            "\n",
            "frame= 1584 fps= 38 q=28.0 size=    7936kB time=00:01:05.15 bitrate= 997.7kbits/s speed=1.56x    \n",
            "\n",
            "frame= 1603 fps= 38 q=28.0 size=    8192kB time=00:01:05.90 bitrate=1018.3kbits/s speed=1.56x    \n",
            "\n",
            "frame= 1620 fps= 38 q=28.0 size=    8192kB time=00:01:06.63 bitrate=1007.2kbits/s speed=1.56x    \n",
            "\n",
            "frame= 1638 fps= 38 q=28.0 size=    8448kB time=00:01:07.35 bitrate=1027.5kbits/s speed=1.55x    \n",
            "\n",
            "frame= 1658 fps= 38 q=28.0 size=    8448kB time=00:01:08.10 bitrate=1016.2kbits/s speed=1.55x    \n",
            "\n",
            "frame= 1678 fps= 38 q=28.0 size=    8448kB time=00:01:08.91 bitrate=1004.2kbits/s speed=1.55x    \n",
            "\n",
            "frame= 1698 fps= 38 q=28.0 size=    8704kB time=00:01:09.70 bitrate=1023.0kbits/s speed=1.55x    \n",
            "\n",
            "frame= 1721 fps= 38 q=28.0 size=    8704kB time=00:01:10.62 bitrate=1009.7kbits/s speed=1.56x    \n",
            "\n",
            "frame= 1739 fps= 38 q=28.0 size=    8960kB time=00:01:11.38 bitrate=1028.2kbits/s speed=1.56x    \n",
            "\n",
            "frame= 1760 fps= 38 q=28.0 size=    8960kB time=00:01:12.22 bitrate=1016.3kbits/s speed=1.55x    \n",
            "\n",
            "frame= 1781 fps= 38 q=28.0 size=    8960kB time=00:01:13.03 bitrate=1005.1kbits/s speed=1.55x    \n",
            "\n",
            "frame= 1799 fps= 38 q=28.0 size=    9216kB time=00:01:13.79 bitrate=1023.0kbits/s speed=1.55x    \n",
            "\n",
            "frame= 1820 fps= 38 q=28.0 size=    9216kB time=00:01:14.63 bitrate=1011.6kbits/s speed=1.55x    \n",
            "\n",
            "frame= 1844 fps= 38 q=28.0 size=    9216kB time=00:01:15.54 bitrate= 999.3kbits/s speed=1.56x    \n",
            "\n",
            "frame= 1864 fps= 38 q=28.0 size=    9472kB time=00:01:16.35 bitrate=1016.2kbits/s speed=1.56x    \n",
            "\n",
            "frame= 1887 fps= 38 q=28.0 size=    9472kB time=00:01:17.27 bitrate=1004.1kbits/s speed=1.56x    \n",
            "\n",
            "frame= 1902 fps= 38 q=28.0 size=    9472kB time=00:01:17.91 bitrate= 995.9kbits/s speed=1.56x    \n",
            "\n",
            "frame= 1929 fps= 38 q=28.0 size=    9728kB time=00:01:18.94 bitrate=1009.5kbits/s speed=1.56x    \n",
            "\n",
            "frame= 1954 fps= 38 q=28.0 size=    9728kB time=00:01:19.94 bitrate= 996.9kbits/s speed=1.56x    \n",
            "\n",
            "frame= 1975 fps= 38 q=28.0 size=    9984kB time=00:01:20.79 bitrate=1012.3kbits/s speed=1.56x    \n",
            "\n",
            "frame= 1996 fps= 38 q=28.0 size=    9984kB time=00:01:21.62 bitrate=1002.0kbits/s speed=1.56x    \n",
            "\n",
            "frame= 2018 fps= 38 q=28.0 size=    9984kB time=00:01:22.54 bitrate= 990.8kbits/s speed=1.57x    \n",
            "\n",
            "frame= 2039 fps= 38 q=25.0 size=   10240kB time=00:01:23.35 bitrate=1006.4kbits/s speed=1.57x    \n",
            "\n",
            "frame= 2065 fps= 38 q=28.0 size=   10240kB time=00:01:24.38 bitrate= 994.1kbits/s speed=1.57x    \n",
            "\n",
            "frame= 2081 fps= 38 q=28.0 size=   10240kB time=00:01:25.06 bitrate= 986.2kbits/s speed=1.57x    \n",
            "\n",
            "frame= 2101 fps= 38 q=28.0 size=   10496kB time=00:01:25.83 bitrate=1001.8kbits/s speed=1.57x    \n",
            "\n",
            "frame= 2116 fps= 38 q=28.0 size=   10496kB time=00:01:26.47 bitrate= 994.4kbits/s speed=1.57x    \n",
            "\n",
            "frame= 2136 fps= 38 q=28.0 size=   10752kB time=00:01:27.23 bitrate=1009.6kbits/s speed=1.56x    \n",
            "\n",
            "frame= 2156 fps= 38 q=28.0 size=   10752kB time=00:01:28.02 bitrate=1000.6kbits/s speed=1.56x    \n",
            "\n",
            "frame= 2174 fps= 38 q=28.0 size=   11008kB time=00:01:28.75 bitrate=1016.0kbits/s speed=1.56x    \n",
            "\n",
            "frame= 2193 fps= 38 q=28.0 size=   11008kB time=00:01:29.50 bitrate=1007.6kbits/s speed=1.56x    \n",
            "\n",
            "frame= 2211 fps= 38 q=28.0 size=   11008kB time=00:01:30.26 bitrate= 999.0kbits/s speed=1.56x    \n",
            "\n",
            "frame= 2229 fps= 38 q=28.0 size=   11264kB time=00:01:30.95 bitrate=1014.6kbits/s speed=1.56x    \n",
            "\n",
            "frame= 2251 fps= 38 q=25.0 size=   11264kB time=00:01:31.82 bitrate=1004.9kbits/s speed=1.56x    \n",
            "\n",
            "frame= 2274 fps= 38 q=28.0 size=   11520kB time=00:01:32.74 bitrate=1017.6kbits/s speed=1.56x    \n",
            "\n",
            "frame= 2297 fps= 38 q=28.0 size=   11520kB time=00:01:33.66 bitrate=1007.6kbits/s speed=1.56x    \n",
            "\n",
            "frame= 2321 fps= 38 q=28.0 size=   11520kB time=00:01:34.62 bitrate= 997.4kbits/s speed=1.57x    \n",
            "\n",
            "frame= 2343 fps= 38 q=28.0 size=   11776kB time=00:01:35.51 bitrate=1010.0kbits/s speed=1.57x    \n",
            "\n",
            "frame= 2365 fps= 38 q=28.0 size=   11776kB time=00:01:36.43 bitrate=1000.4kbits/s speed=1.57x    \n",
            "\n",
            "frame= 2386 fps= 39 q=28.0 size=   11776kB time=00:01:37.26 bitrate= 991.8kbits/s speed=1.57x    \n",
            "\n",
            "frame= 2410 fps= 39 q=28.0 size=   12032kB time=00:01:38.18 bitrate=1003.9kbits/s speed=1.57x    \n",
            "\n",
            "frame= 2432 fps= 39 q=28.0 size=   12032kB time=00:01:39.07 bitrate= 994.8kbits/s speed=1.57x    \n",
            "\n",
            "frame= 2453 fps= 39 q=28.0 size=   12032kB time=00:01:39.95 bitrate= 986.1kbits/s speed=1.57x    \n",
            "\n",
            "frame= 2477 fps= 39 q=28.0 size=   12288kB time=00:01:40.91 bitrate= 997.5kbits/s speed=1.58x    \n",
            "\n",
            "frame= 2503 fps= 39 q=28.0 size=   12288kB time=00:01:41.91 bitrate= 987.7kbits/s speed=1.58x    \n",
            "\n",
            "frame= 2527 fps= 39 q=28.0 size=   12288kB time=00:01:42.91 bitrate= 978.1kbits/s speed=1.58x    \n",
            "\n",
            "frame= 2547 fps= 39 q=28.0 size=   12544kB time=00:01:43.66 bitrate= 991.3kbits/s speed=1.58x    \n",
            "\n",
            "frame= 2564 fps= 39 q=28.0 size=   12544kB time=00:01:44.34 bitrate= 984.8kbits/s speed=1.58x    \n",
            "\n",
            "frame= 2585 fps= 39 q=28.0 size=   12800kB time=00:01:45.18 bitrate= 996.9kbits/s speed=1.58x    \n",
            "\n",
            "frame= 2605 fps= 39 q=25.0 size=   12800kB time=00:01:45.99 bitrate= 989.3kbits/s speed=1.58x    \n",
            "\n",
            "frame= 2629 fps= 39 q=28.0 size=   13056kB time=00:01:46.99 bitrate= 999.6kbits/s speed=1.58x    \n",
            "\n",
            "frame= 2655 fps= 39 q=28.0 size=   13056kB time=00:01:47.99 bitrate= 990.4kbits/s speed=1.58x    \n",
            "\n",
            "frame= 2673 fps= 39 q=28.0 size=   13056kB time=00:01:48.70 bitrate= 983.9kbits/s speed=1.58x    \n",
            "\n",
            "frame= 2694 fps= 39 q=28.0 size=   13312kB time=00:01:49.59 bitrate= 995.0kbits/s speed=1.58x    \n",
            "\n",
            "frame= 2719 fps= 39 q=28.0 size=   13312kB time=00:01:50.59 bitrate= 986.0kbits/s speed=1.59x    \n",
            "\n",
            "frame= 2740 fps= 39 q=28.0 size=   13312kB time=00:01:51.38 bitrate= 979.0kbits/s speed=1.59x    \n",
            "\n",
            "frame= 2761 fps= 39 q=28.0 size=   13312kB time=00:01:52.26 bitrate= 971.4kbits/s speed=1.59x    \n",
            "\n",
            "frame= 2782 fps= 39 q=28.0 size=   13568kB time=00:01:53.07 bitrate= 983.0kbits/s speed=1.59x    \n",
            "\n",
            "frame= 2800 fps= 39 q=28.0 size=   13568kB time=00:01:53.79 bitrate= 976.7kbits/s speed=1.59x    \n",
            "\n",
            "frame= 2819 fps= 39 q=28.0 size=   13824kB time=00:01:54.54 bitrate= 988.7kbits/s speed=1.58x    \n",
            "\n",
            "frame= 2837 fps= 39 q=28.0 size=   13824kB time=00:01:55.31 bitrate= 982.1kbits/s speed=1.58x    \n",
            "\n",
            "frame= 2857 fps= 39 q=28.0 size=   13824kB time=00:01:56.06 bitrate= 975.8kbits/s speed=1.58x    \n",
            "\n",
            "frame= 2878 fps= 39 q=28.0 size=   14080kB time=00:01:56.91 bitrate= 986.6kbits/s speed=1.58x    \n",
            "\n",
            "frame= 2896 fps= 39 q=28.0 size=   14080kB time=00:01:57.66 bitrate= 980.3kbits/s speed=1.58x    \n",
            "\n",
            "frame= 2916 fps= 39 q=28.0 size=   14336kB time=00:01:58.47 bitrate= 991.3kbits/s speed=1.58x    \n",
            "\n",
            "frame= 2937 fps= 39 q=28.0 size=   14336kB time=00:01:59.26 bitrate= 984.7kbits/s speed=1.58x    \n",
            "\n",
            "frame= 2956 fps= 39 q=28.0 size=   14592kB time=00:02:00.02 bitrate= 995.9kbits/s speed=1.58x    \n",
            "\n",
            "frame= 2972 fps= 39 q=28.0 size=   14592kB time=00:02:00.71 bitrate= 990.3kbits/s speed=1.58x    \n",
            "\n",
            "frame= 2992 fps= 39 q=28.0 size=   14848kB time=00:02:01.47 bitrate=1001.3kbits/s speed=1.58x    \n",
            "\n",
            "frame= 3009 fps= 39 q=28.0 size=   14848kB time=00:02:02.14 bitrate= 995.9kbits/s speed=1.58x    \n",
            "\n",
            "frame= 3027 fps= 39 q=28.0 size=   15104kB time=00:02:02.86 bitrate=1007.0kbits/s speed=1.58x    \n",
            "\n",
            "frame= 3044 fps= 39 q=28.0 size=   15104kB time=00:02:03.54 bitrate=1001.5kbits/s speed=1.58x    \n",
            "\n",
            "frame= 3059 fps= 39 q=28.0 size=   15104kB time=00:02:04.18 bitrate= 996.3kbits/s speed=1.57x    \n",
            "\n",
            "frame= 3076 fps= 39 q=25.0 size=   15360kB time=00:02:04.82 bitrate=1008.0kbits/s speed=1.57x    \n",
            "\n",
            "frame= 3096 fps= 39 q=28.0 size=   15360kB time=00:02:05.63 bitrate=1001.5kbits/s speed=1.57x    \n",
            "\n",
            "frame= 3113 fps= 39 q=28.0 size=   15616kB time=00:02:06.34 bitrate=1012.5kbits/s speed=1.57x    \n",
            "\n",
            "frame= 3129 fps= 39 q=28.0 size=   15616kB time=00:02:06.98 bitrate=1007.4kbits/s speed=1.57x    \n",
            "\n",
            "frame= 3146 fps= 39 q=25.0 size=   15616kB time=00:02:07.66 bitrate=1002.0kbits/s speed=1.57x    \n",
            "\n",
            "frame= 3165 fps= 39 q=28.0 size=   15872kB time=00:02:08.39 bitrate=1012.7kbits/s speed=1.57x    \n",
            "\n",
            "frame= 3185 fps= 39 q=28.0 size=   15872kB time=00:02:09.22 bitrate=1006.2kbits/s speed=1.57x    \n",
            "\n",
            "frame= 3205 fps= 39 q=28.0 size=   16128kB time=00:02:10.03 bitrate=1016.0kbits/s speed=1.56x    \n",
            "\n",
            "frame= 3225 fps= 39 q=28.0 size=   16128kB time=00:02:10.78 bitrate=1010.2kbits/s speed=1.56x    \n",
            "\n",
            "frame= 3244 fps= 39 q=28.0 size=   16384kB time=00:02:11.54 bitrate=1020.3kbits/s speed=1.56x    \n",
            "\n",
            "frame= 3266 fps= 39 q=28.0 size=   16384kB time=00:02:12.42 bitrate=1013.6kbits/s speed=1.56x    \n",
            "\n",
            "frame= 3285 fps= 39 q=28.0 size=   16384kB time=00:02:13.23 bitrate=1007.4kbits/s speed=1.56x    \n",
            "\n",
            "frame= 3305 fps= 39 q=28.0 size=   16640kB time=00:02:14.02 bitrate=1017.1kbits/s speed=1.56x    \n",
            "\n",
            "frame= 3325 fps= 39 q=28.0 size=   16640kB time=00:02:14.83 bitrate=1011.0kbits/s speed=1.56x    \n",
            "\n",
            "frame= 3345 fps= 39 q=28.0 size=   16640kB time=00:02:15.62 bitrate=1005.1kbits/s speed=1.56x    \n",
            "\n",
            "frame= 3365 fps= 39 q=28.0 size=   16896kB time=00:02:16.43 bitrate=1014.5kbits/s speed=1.56x    \n",
            "\n",
            "frame= 3388 fps= 39 q=28.0 size=   16896kB time=00:02:17.30 bitrate=1008.0kbits/s speed=1.56x    \n",
            "\n",
            "frame= 3408 fps= 39 q=28.0 size=   17152kB time=00:02:18.14 bitrate=1017.1kbits/s speed=1.56x    \n",
            "\n",
            "frame= 3430 fps= 39 q=28.0 size=   17152kB time=00:02:18.99 bitrate=1010.9kbits/s speed=1.56x    \n",
            "\n",
            "frame= 3452 fps= 39 q=25.0 size=   17152kB time=00:02:19.91 bitrate=1004.3kbits/s speed=1.57x    \n",
            "\n",
            "frame= 3472 fps= 39 q=28.0 size=   17408kB time=00:02:20.70 bitrate=1013.5kbits/s speed=1.57x    \n",
            "\n",
            "frame= 3497 fps= 39 q=28.0 size=   17408kB time=00:02:21.66 bitrate=1006.7kbits/s speed=1.57x    \n",
            "\n",
            "frame= 3518 fps= 39 q=28.0 size=   17408kB time=00:02:22.55 bitrate=1000.3kbits/s speed=1.57x    \n",
            "\n",
            "frame= 3543 fps= 39 q=28.0 size=   17664kB time=00:02:23.55 bitrate=1008.0kbits/s speed=1.57x    \n",
            "\n",
            "frame= 3567 fps= 39 q=28.0 size=   17664kB time=00:02:24.47 bitrate=1001.6kbits/s speed=1.57x    \n",
            "\n",
            "frame= 3591 fps= 39 q=28.0 size=   17664kB time=00:02:25.47 bitrate= 994.7kbits/s speed=1.57x    \n",
            "\n",
            "frame= 3612 fps= 39 q=28.0 size=   17920kB time=00:02:26.31 bitrate=1003.3kbits/s speed=1.57x    \n",
            "\n",
            "frame= 3630 fps= 39 q=28.0 size=   17920kB time=00:02:26.99 bitrate= 998.7kbits/s speed=1.57x    \n",
            "\n",
            "frame= 3648 fps= 39 q=28.0 size=   18176kB time=00:02:27.74 bitrate=1007.8kbits/s speed=1.57x    \n",
            "\n",
            "frame= 3668 fps= 39 q=28.0 size=   18176kB time=00:02:28.55 bitrate=1002.3kbits/s speed=1.57x    \n",
            "\n",
            "frame= 3688 fps= 39 q=28.0 size=   18432kB time=00:02:29.34 bitrate=1011.1kbits/s speed=1.57x    \n",
            "\n",
            "frame= 3709 fps= 39 q=28.0 size=   18432kB time=00:02:30.19 bitrate=1005.3kbits/s speed=1.57x    \n",
            "\n",
            "frame= 3730 fps= 39 q=28.0 size=   18432kB time=00:02:30.98 bitrate=1000.1kbits/s speed=1.57x    \n",
            "\n",
            "frame= 3749 fps= 39 q=28.0 size=   18688kB time=00:02:31.79 bitrate=1008.6kbits/s speed=1.57x    \n",
            "\n",
            "frame= 3768 fps= 39 q=28.0 size=   18688kB time=00:02:32.54 bitrate=1003.6kbits/s speed=1.57x    \n",
            "\n",
            "frame= 3787 fps= 39 q=28.0 size=   18688kB time=00:02:33.30 bitrate= 998.6kbits/s speed=1.57x    \n",
            "\n",
            "frame= 3805 fps= 39 q=28.0 size=   18944kB time=00:02:33.99 bitrate=1007.8kbits/s speed=1.57x    \n",
            "\n",
            "frame= 3824 fps= 39 q=28.0 size=   18944kB time=00:02:34.75 bitrate=1002.8kbits/s speed=1.57x    \n",
            "\n",
            "frame= 3840 fps= 39 q=28.0 size=   19200kB time=00:02:35.42 bitrate=1012.0kbits/s speed=1.57x    \n",
            "\n",
            "frame= 3858 fps= 39 q=28.0 size=   19200kB time=00:02:36.14 bitrate=1007.3kbits/s speed=1.57x    \n",
            "\n",
            "frame= 3878 fps= 39 q=28.0 size=   19200kB time=00:02:36.91 bitrate=1002.4kbits/s speed=1.57x    \n",
            "\n",
            "frame= 3896 fps= 39 q=28.0 size=   19456kB time=00:02:37.66 bitrate=1010.9kbits/s speed=1.56x    \n",
            "\n",
            "frame= 3914 fps= 39 q=28.0 size=   19456kB time=00:02:38.38 bitrate=1006.3kbits/s speed=1.56x    \n",
            "\n",
            "frame= 3932 fps= 39 q=28.0 size=   19456kB time=00:02:39.11 bitrate=1001.7kbits/s speed=1.56x    \n",
            "\n",
            "frame= 3950 fps= 39 q=28.0 size=   19712kB time=00:02:39.83 bitrate=1010.3kbits/s speed=1.56x    \n",
            "\n",
            "frame= 3968 fps= 39 q=28.0 size=   19712kB time=00:02:40.54 bitrate=1005.9kbits/s speed=1.56x    \n",
            "\n",
            "frame= 3987 fps= 39 q=28.0 size=   19968kB time=00:02:41.26 bitrate=1014.3kbits/s speed=1.56x    \n",
            "\n",
            "frame= 4008 fps= 39 q=28.0 size=   19968kB time=00:02:42.11 bitrate=1009.0kbits/s speed=1.56x    \n",
            "\n",
            "frame= 4028 fps= 39 q=28.0 size=   19968kB time=00:02:42.90 bitrate=1004.1kbits/s speed=1.56x    \n",
            "\n",
            "frame= 4048 fps= 39 q=28.0 size=   20224kB time=00:02:43.71 bitrate=1011.9kbits/s speed=1.56x    \n",
            "\n",
            "frame= 4066 fps= 39 q=28.0 size=   20224kB time=00:02:44.42 bitrate=1007.6kbits/s speed=1.56x    \n",
            "\n",
            "frame= 4084 fps= 39 q=28.0 size=   20480kB time=00:02:45.14 bitrate=1015.9kbits/s speed=1.56x    \n",
            "\n",
            "frame= 4101 fps= 39 q=28.0 size=   20480kB time=00:02:45.83 bitrate=1011.7kbits/s speed=1.56x    \n",
            "\n",
            "frame= 4118 fps= 38 q=28.0 size=   20736kB time=00:02:46.55 bitrate=1019.9kbits/s speed=1.56x    \n",
            "\n",
            "frame= 4135 fps= 38 q=28.0 size=   20736kB time=00:02:47.19 bitrate=1016.0kbits/s speed=1.56x    \n",
            "\n",
            "frame= 4153 fps= 38 q=28.0 size=   20992kB time=00:02:47.94 bitrate=1024.0kbits/s speed=1.56x    \n",
            "\n",
            "frame= 4173 fps= 38 q=28.0 size=   20992kB time=00:02:48.75 bitrate=1019.0kbits/s speed=1.56x    \n",
            "\n",
            "frame= 4193 fps= 38 q=28.0 size=   20992kB time=00:02:49.54 bitrate=1014.3kbits/s speed=1.56x    \n",
            "\n",
            "frame= 4212 fps= 38 q=28.0 size=   21248kB time=00:02:50.31 bitrate=1022.0kbits/s speed=1.55x    \n",
            "\n",
            "frame= 4235 fps= 38 q=28.0 size=   21248kB time=00:02:51.22 bitrate=1016.6kbits/s speed=1.56x    \n",
            "\n",
            "frame= 4256 fps= 38 q=28.0 size=   21248kB time=00:02:52.03 bitrate=1011.8kbits/s speed=1.56x    \n",
            "\n",
            "frame= 4274 fps= 38 q=28.0 size=   21504kB time=00:02:52.78 bitrate=1019.5kbits/s speed=1.56x    \n",
            "\n",
            "frame= 4294 fps= 38 q=28.0 size=   21504kB time=00:02:53.57 bitrate=1014.9kbits/s speed=1.56x    \n",
            "\n",
            "frame= 4313 fps= 38 q=28.0 size=   21504kB time=00:02:54.30 bitrate=1010.7kbits/s speed=1.56x    \n",
            "\n",
            "frame= 4331 fps= 38 q=28.0 size=   21760kB time=00:02:55.02 bitrate=1018.5kbits/s speed=1.55x    \n",
            "\n",
            "frame= 4347 fps= 38 q=28.0 size=   21760kB time=00:02:55.66 bitrate=1014.8kbits/s speed=1.55x    \n",
            "\n",
            "frame= 4361 fps= 38 q=28.0 size=   22016kB time=00:02:56.26 bitrate=1023.2kbits/s speed=1.55x    \n",
            "\n",
            "frame= 4380 fps= 38 q=28.0 size=   22016kB time=00:02:57.03 bitrate=1018.8kbits/s speed=1.55x    \n",
            "\n",
            "frame= 4399 fps= 38 q=28.0 size=   22272kB time=00:02:57.75 bitrate=1026.4kbits/s speed=1.55x    \n",
            "\n",
            "frame= 4417 fps= 38 q=28.0 size=   22272kB time=00:02:58.46 bitrate=1022.4kbits/s speed=1.55x    \n",
            "\n",
            "frame= 4434 fps= 38 q=28.0 size=   22528kB time=00:02:59.18 bitrate=1029.9kbits/s speed=1.55x    \n",
            "\n",
            "frame= 4453 fps= 38 q=28.0 size=   22528kB time=00:02:59.95 bitrate=1025.5kbits/s speed=1.55x    \n",
            "\n",
            "frame= 4473 fps= 38 q=28.0 size=   22784kB time=00:03:00.70 bitrate=1032.9kbits/s speed=1.55x    \n",
            "\n",
            "frame= 4496 fps= 38 q=28.0 size=   22784kB time=00:03:01.66 bitrate=1027.4kbits/s speed=1.55x    \n",
            "\n",
            "frame= 4520 fps= 38 q=28.0 size=   22784kB time=00:03:02.59 bitrate=1022.2kbits/s speed=1.55x    \n",
            "\n",
            "frame= 4540 fps= 38 q=28.0 size=   23040kB time=00:03:03.38 bitrate=1029.2kbits/s speed=1.55x    \n",
            "\n",
            "frame= 4558 fps= 38 q=28.0 size=   23040kB time=00:03:04.11 bitrate=1025.1kbits/s speed=1.55x    \n",
            "\n",
            "frame= 4578 fps= 38 q=28.0 size=   23296kB time=00:03:04.90 bitrate=1032.1kbits/s speed=1.55x    \n",
            "\n",
            "frame= 4593 fps= 38 q=28.0 size=   23296kB time=00:03:05.54 bitrate=1028.6kbits/s speed=1.55x    \n",
            "\n",
            "frame= 4617 fps= 38 q=28.0 size=   23296kB time=00:03:06.50 bitrate=1023.3kbits/s speed=1.55x    \n",
            "\n",
            "frame= 4640 fps= 38 q=28.0 size=   23552kB time=00:03:07.44 bitrate=1029.3kbits/s speed=1.55x    \n",
            "\n",
            "frame= 4671 fps= 39 q=28.0 size=   23552kB time=00:03:08.63 bitrate=1022.8kbits/s speed=1.55x    \n",
            "\n",
            "frame= 4695 fps= 39 q=28.0 size=   23552kB time=00:03:09.59 bitrate=1017.6kbits/s speed=1.56x    \n",
            "\n",
            "frame= 4717 fps= 39 q=28.0 size=   23552kB time=00:03:10.47 bitrate=1013.0kbits/s speed=1.56x    \n",
            "\n",
            "frame= 4738 fps= 39 q=28.0 size=   23808kB time=00:03:11.34 bitrate=1019.3kbits/s speed=1.56x    \n",
            "\n",
            "frame= 4759 fps= 39 q=28.0 size=   23808kB time=00:03:12.15 bitrate=1015.0kbits/s speed=1.56x    \n",
            "\n",
            "frame= 4780 fps= 39 q=28.0 size=   24064kB time=00:03:12.98 bitrate=1021.5kbits/s speed=1.56x    \n",
            "\n",
            "frame= 4803 fps= 39 q=28.0 size=   24064kB time=00:03:13.90 bitrate=1016.6kbits/s speed=1.56x    \n",
            "\n",
            "frame= 4826 fps= 39 q=25.0 size=   24064kB time=00:03:14.82 bitrate=1011.9kbits/s speed=1.56x    \n",
            "\n",
            "frame= 4849 fps= 39 q=28.0 size=   24320kB time=00:03:15.74 bitrate=1017.8kbits/s speed=1.56x    \n",
            "\n",
            "frame= 4870 fps= 39 q=28.0 size=   24320kB time=00:03:16.63 bitrate=1013.2kbits/s speed=1.56x    \n",
            "\n",
            "frame= 4891 fps= 39 q=28.0 size=   24320kB time=00:03:17.42 bitrate=1009.1kbits/s speed=1.56x    \n",
            "\n",
            "frame= 4908 fps= 39 q=28.0 size=   24576kB time=00:03:18.15 bitrate=1016.0kbits/s speed=1.56x    \n",
            "\n",
            "frame= 4928 fps= 39 q=25.0 size=   24576kB time=00:03:18.91 bitrate=1012.1kbits/s speed=1.56x    \n",
            "\n",
            "frame= 4950 fps= 39 q=28.0 size=   24576kB time=00:03:19.83 bitrate=1007.5kbits/s speed=1.56x    \n",
            "\n",
            "frame= 4972 fps= 39 q=28.0 size=   24832kB time=00:03:20.71 bitrate=1013.5kbits/s speed=1.56x    \n",
            "\n",
            "frame= 4993 fps= 39 q=28.0 size=   24832kB time=00:03:21.50 bitrate=1009.5kbits/s speed=1.56x    \n",
            "\n",
            "frame= 5012 fps= 39 q=28.0 size=   25088kB time=00:03:22.29 bitrate=1016.0kbits/s speed=1.56x    \n",
            "\n",
            "frame= 5032 fps= 39 q=28.0 size=   25088kB time=00:03:23.07 bitrate=1012.0kbits/s speed=1.56x    \n",
            "\n",
            "frame= 5056 fps= 39 q=28.0 size=   25088kB time=00:03:24.03 bitrate=1007.3kbits/s speed=1.56x    \n",
            "\n",
            "frame= 5077 fps= 39 q=28.0 size=   25344kB time=00:03:24.93 bitrate=1013.1kbits/s speed=1.56x    \n",
            "\n",
            "frame= 5099 fps= 39 q=28.0 size=   25344kB time=00:03:25.74 bitrate=1009.1kbits/s speed=1.56x    \n",
            "\n",
            "frame= 5119 fps= 39 q=28.0 size=   25344kB time=00:03:26.55 bitrate=1005.1kbits/s speed=1.56x    \n",
            "\n",
            "frame= 5139 fps= 39 q=28.0 size=   25600kB time=00:03:27.34 bitrate=1011.4kbits/s speed=1.56x    \n",
            "\n",
            "frame= 5158 fps= 39 q=28.0 size=   25600kB time=00:03:28.11 bitrate=1007.7kbits/s speed=1.56x    \n",
            "\n",
            "frame= 5176 fps= 39 q=28.0 size=   25600kB time=00:03:28.86 bitrate=1004.1kbits/s speed=1.56x    \n",
            "\n",
            "frame= 5196 fps= 39 q=28.0 size=   25856kB time=00:03:29.67 bitrate=1010.2kbits/s speed=1.56x    \n",
            "\n",
            "frame= 5219 fps= 39 q=28.0 size=   25856kB time=00:03:30.54 bitrate=1006.0kbits/s speed=1.56x    \n",
            "\n",
            "frame= 5239 fps= 39 q=28.0 size=   25856kB time=00:03:31.39 bitrate=1002.0kbits/s speed=1.56x    \n",
            "\n",
            "frame= 5301 fps= 39 q=-1.0 Lsize=   26395kB time=00:03:32.03 bitrate=1019.8kbits/s speed=1.56x    \n",
            "\n",
            "\n",
            "\n",
            "complete\n"
          ]
        }
      ]
    },
    {
      "cell_type": "code",
      "source": [
        "# Download File to Computer.\n",
        "from google.colab import files\n",
        "files.download(\"Rick Astley - Never Gonna Give You Up (Official Music Video).mp4\") "
      ],
      "metadata": {
        "id": "HuqBiY9chYio",
        "colab": {
          "base_uri": "https://localhost:8080/",
          "height": 17
        },
        "outputId": "68a71d0a-5aef-46ba-d429-cd2b034d9075"
      },
      "execution_count": 7,
      "outputs": [
        {
          "output_type": "display_data",
          "data": {
            "text/plain": [
              "<IPython.core.display.Javascript object>"
            ],
            "application/javascript": [
              "\n",
              "    async function download(id, filename, size) {\n",
              "      if (!google.colab.kernel.accessAllowed) {\n",
              "        return;\n",
              "      }\n",
              "      const div = document.createElement('div');\n",
              "      const label = document.createElement('label');\n",
              "      label.textContent = `Downloading \"${filename}\": `;\n",
              "      div.appendChild(label);\n",
              "      const progress = document.createElement('progress');\n",
              "      progress.max = size;\n",
              "      div.appendChild(progress);\n",
              "      document.body.appendChild(div);\n",
              "\n",
              "      const buffers = [];\n",
              "      let downloaded = 0;\n",
              "\n",
              "      const channel = await google.colab.kernel.comms.open(id);\n",
              "      // Send a message to notify the kernel that we're ready.\n",
              "      channel.send({})\n",
              "\n",
              "      for await (const message of channel.messages) {\n",
              "        // Send a message to notify the kernel that we're ready.\n",
              "        channel.send({})\n",
              "        if (message.buffers) {\n",
              "          for (const buffer of message.buffers) {\n",
              "            buffers.push(buffer);\n",
              "            downloaded += buffer.byteLength;\n",
              "            progress.value = downloaded;\n",
              "          }\n",
              "        }\n",
              "      }\n",
              "      const blob = new Blob(buffers, {type: 'application/binary'});\n",
              "      const a = document.createElement('a');\n",
              "      a.href = window.URL.createObjectURL(blob);\n",
              "      a.download = filename;\n",
              "      div.appendChild(a);\n",
              "      a.click();\n",
              "      div.remove();\n",
              "    }\n",
              "  "
            ]
          },
          "metadata": {}
        },
        {
          "output_type": "display_data",
          "data": {
            "text/plain": [
              "<IPython.core.display.Javascript object>"
            ],
            "application/javascript": [
              "download(\"download_d0ee23fe-ce63-4473-9b12-1927d27a40ac\", \"Rick Astley - Never Gonna Give You Up (Official Music Video).mp4\", 27028750)"
            ]
          },
          "metadata": {}
        }
      ]
    }
  ]
}